# xmcd
#
# Track frame offsets:
#  150
#  3245
#  26812
#  44850
#  61389
#  77699
#  97748
#  110149
#  128830
#  147080
#  159234
#  182368
#  198025
#  218105
#  234418
#
# Disc length: 3399 seconds
#
# Revision: 0
# Processed by: cddbd v1.5.2PL0 Copyright (c) Steve Scherf et al.
# Submitted via: AltoMP3_Maker 3.0
#
DISCID=bf0d450f
DTITLE=Wylie and The Wild West - Unwired
DYEAR=1900
DGENRE=
TTITLE0=Welcome
TTITLE1=Good-bye Old Paint
TTITLE2=Double Wild
TTITLE3=Ridin' the Hi-Line
TTITLE4=Cowpoke
TTITLE5=Equus Caballus
TTITLE6=America the Beautiful
TTITLE7=Rodeo to the Bone
TTITLE8=Cattle Call
TTITLE9=Everyday
TTITLE10=I Get High
TTITLE11=To Ride!
TTITLE12=Girl on the Billboard
TTITLE13=Where Horses Are Heroes
TTITLE14=Ain't No Life after Rodeo
EXTD=
EXTT0=
EXTT1=
EXTT2=
EXTT3=
EXTT4=
EXTT5=
EXTT6=
EXTT7=
EXTT8=
EXTT9=
EXTT10=
EXTT11=
EXTT12=
EXTT13=
EXTT14=
PLAYORDER=
